<svg width="294" height="359" viewBox="0 0 294 359" fill="none" xmlns="http://www.w3.org/2000/svg">
<path d="M2.5 0C3.88071 0 5 1.11929 5 2.5V60.499C6.58074 59.197 9.14322 57.4412 11.5566 56.8779C12.7951 56.589 14.5697 56.4863 16.0557 57.6484C17.3582 58.6672 17.8646 60.2075 17.9746 61.7891C18.8398 63.3218 19.977 65.5683 20.9453 67.9814C22.0107 70.6364 22.9999 73.799 23 76.5C23 77.9397 22.9348 79.3428 22.8809 80.5996C22.8256 81.8852 22.7832 83.001 22.8115 83.9912C22.8731 86.1454 23.2688 86.8134 23.5615 87.0479C25.7327 88.7848 28.8607 90.1229 30.9902 90.5488C32.0588 90.7625 40.2548 91.6276 49.0713 92.3203C53.4309 92.6628 57.8639 92.9569 61.5371 93.1035C65.3321 93.255 68.0031 93.2318 69.0527 93.041C71.6487 92.569 77.7807 90.9807 83.6621 89.0615C86.5926 88.1053 89.3984 87.087 91.6299 86.1094C92.7469 85.62 93.6799 85.1575 94.3965 84.7373C95.1576 84.291 95.5011 83.9902 95.6016 83.873C96.3079 83.049 97.4946 81.8908 98.9775 80.5723L87.3818 69.835C82.7134 70.9208 74.9357 69.0382 67.4912 58.9883C63.302 53.3329 61.7352 48.673 61.8135 44.96C61.8731 42.1351 62.8948 39.9477 64.2705 38.5156C63.557 34.3802 63.1425 28.7164 64.0098 23.584C64.9495 18.0232 67.6198 12.1004 74.1152 10.6318C76.8089 9.15003 81.003 7.33392 85.373 6.43848C89.6267 5.5669 94.7066 5.43869 98.5566 8.1709C101.75 8.89984 106.122 10.6332 109.598 13.7188C113.385 17.0818 116.138 22.1148 114.964 28.9248C113.167 39.3464 112.603 47.5224 112.514 51.0645C115.323 54.1788 119.79 58.5552 124.735 62.3057C127.903 64.7084 131.115 66.7332 134.113 68.0596C136.569 68.4507 138.984 69.0409 141 69.9209C143.126 70.8488 145.354 72.3426 146.234 74.7715C147.778 76.6069 149.917 79.3739 151.732 82.2178C152.708 83.7456 153.621 85.3445 154.299 86.8652C154.951 88.3287 155.5 89.9674 155.5 91.5C155.5 91.8372 155.596 92.5811 155.857 93.7949C156.107 94.954 156.473 96.3872 156.931 98.0215C157.845 101.287 159.097 105.261 160.435 109.272C163.123 117.337 166.087 125.349 167.276 127.966C169.756 133.422 173.619 141.605 180.824 149.29C188.25 157.21 195.114 163.555 200.321 176.572C202.841 182.871 205.312 189.299 207.604 194.565C208.748 197.193 209.822 199.47 210.806 201.253C211.831 203.112 212.62 204.168 213.127 204.603C214.149 205.479 214.973 206.674 215.633 207.861C216.308 209.077 216.895 210.439 217.394 211.779C218.389 214.457 219.097 217.238 219.451 219.01L219.486 219.185L219.496 219.361C219.64 221.947 221.141 229.272 226.026 236.036C230.871 242.743 238.731 247.308 241.984 248.702L242.577 248.956L242.974 249.466C244.786 251.796 247.621 255.809 250.314 260.366C252.991 264.895 255.624 270.121 256.912 274.843C258.009 278.863 260.999 284.513 264.463 290.109C267.697 295.336 271.207 300.296 273.587 303.451C275.269 304.186 277.51 305.437 279.607 307.152C281.953 309.071 284.343 311.757 285.362 315.176L292.816 333.562L292.821 333.572C293.418 335.066 293.166 336.714 292.283 338.174C291.425 339.592 289.958 340.89 287.916 342.058C283.889 344.361 276.995 346.513 265.717 347.929C260.338 350.463 247.515 353.633 234.942 347.766L234.153 347.397L233.764 346.618C232.883 344.857 232.471 342.12 233.73 339.305C235.008 336.45 237.82 333.905 242.646 332.15C246.031 330.919 248.41 327.667 249.956 323.494C251.321 319.81 251.878 315.804 251.98 312.958L234.165 293.698L234.126 293.656L234.089 293.612C229.602 288.295 219.421 275.935 214.939 269.417C210.887 263.522 204.227 259.504 201.484 258.285L201.212 258.164L200.976 257.981C198.722 256.248 195.202 253.241 191.874 249.784C189.032 246.833 186.16 243.379 184.411 240H172.563L171.84 238.759L134.84 175.259L134.771 175.142L134.717 175.019C131.982 168.887 127.609 159.621 123.385 151.759C121.269 147.821 119.22 144.29 117.453 141.694C116.567 140.392 115.792 139.385 115.15 138.694C114.413 137.9 114.157 137.862 114.342 137.912C113.317 137.632 112.381 137.03 111.594 136.404C110.775 135.754 109.943 134.937 109.123 134.036C107.482 132.233 105.735 129.918 104.044 127.473C101.182 123.334 98.3692 118.656 96.3418 115.062C91.3747 116.736 84.0051 118.631 75.8066 119.644C66.4205 120.803 55.7318 120.835 46.2578 117.888C27.8679 112.166 13.3925 101.899 8.33105 97.3613L8.21875 97.2607L8.11816 97.1465L5 93.582V356C5 357.381 3.88071 358.5 2.5 358.5C1.11929 358.5 0 357.381 0 356V2.5C0 1.11929 1.11929 0 2.5 0ZM256.949 313.757C256.777 316.977 256.129 321.224 254.645 325.231C252.89 329.967 249.768 334.881 244.354 336.85C240.38 338.295 238.86 340.085 238.295 341.347C237.902 342.225 237.883 343.04 238 343.653C248.806 348.244 259.786 345.313 263.882 343.265L264.268 343.071L264.695 343.019C275.972 341.634 282.21 339.561 285.434 337.718C287.042 336.798 287.738 336.027 288.005 335.586C288.085 335.454 288.117 335.364 288.132 335.313L280.684 316.939L280.633 316.815L280.597 316.688C279.992 314.572 278.415 312.636 276.442 311.022C274.87 309.736 273.191 308.778 271.931 308.192L256.949 313.757ZM189.28 238.485C190.714 240.969 192.962 243.705 195.476 246.316C198.512 249.47 201.729 252.233 203.818 253.857C207.221 255.44 214.456 259.886 219.061 266.584C223.372 272.855 233.363 284.996 237.888 290.359L255.198 309.074L268.005 304.317C265.716 301.17 262.877 297.047 260.212 292.741C256.734 287.122 253.391 280.938 252.088 276.158C250.976 272.08 248.609 267.306 246.011 262.91C243.611 258.85 241.094 255.25 239.396 253.02C235.373 251.162 227.242 246.258 221.974 238.964C217.996 233.456 215.968 227.616 215.076 223.507L189.28 238.485ZM140.452 174.96L175.437 235H185.327L214.155 218.261C213.805 216.853 213.315 215.156 212.707 213.521C212.264 212.329 211.776 211.215 211.262 210.289C210.732 209.335 210.25 208.722 209.873 208.398C208.63 207.333 207.481 205.576 206.429 203.669C205.334 201.686 204.189 199.245 203.021 196.561C200.688 191.202 198.159 184.629 195.679 178.429C191.17 167.156 185.475 161.479 178.509 154.119L140.452 174.96ZM12.6934 61.7471C11.6637 61.9873 10.2549 62.7971 9 63.7207V90.5605L11.7725 93.7295C16.4785 97.9111 30.2617 107.675 47.7422 113.113C56.268 115.766 66.1631 115.797 75.1934 114.682C84.1074 113.58 91.9679 111.387 96.4785 109.711C99.5397 108.066 104.47 105.844 109.648 104.359C114.787 102.886 120.76 101.958 125.364 103.654L123.636 108.346C120.64 107.242 116.029 107.731 111.026 109.166C107.304 110.234 103.689 111.728 100.948 113.048C102.896 116.477 105.515 120.808 108.156 124.628C109.79 126.991 111.394 129.102 112.821 130.671C113.535 131.456 114.168 132.063 114.704 132.489C115.129 132.827 115.411 132.984 115.557 133.05L115.658 133.089L115.896 133.162C117.078 133.565 118.077 134.497 118.815 135.292C119.699 136.244 120.635 137.482 121.587 138.881C123.498 141.689 125.644 145.397 127.79 149.392C131.552 156.393 135.409 164.451 138.168 170.51L175.041 150.317C168.606 142.741 165.003 135.05 162.724 130.035C161.413 127.152 158.377 118.913 155.69 110.854C154.34 106.803 153.061 102.745 152.116 99.3701C151.644 97.6846 151.249 96.1444 150.97 94.8486C150.702 93.6079 150.5 92.4129 150.5 91.5C150.5 91.0328 150.298 90.1714 149.732 88.9014C149.192 87.688 148.417 86.3176 147.518 84.9082C145.719 82.0908 143.544 79.3095 142.102 77.627L141.718 77.1797L141.574 76.6064C141.46 76.1493 140.947 75.4269 139.361 74.6689C137.199 74.4717 134.965 73.836 132.735 72.9072C131.719 72.7602 130.668 72.6441 129.608 72.5576C126.098 72.2712 122.742 72.3218 120.708 72.4912C119.764 72.5699 118.154 73.1557 115.995 74.335C113.92 75.468 111.61 76.9946 109.349 78.6445C104.774 81.9827 100.709 85.5978 99.3984 87.127C98.7487 87.8849 97.8263 88.5227 96.9258 89.0508C95.9803 89.6051 94.8544 90.1545 93.6357 90.6885C91.1954 91.7576 88.2197 92.8333 85.2129 93.8145C79.2195 95.7702 72.8513 97.4319 69.9473 97.96C68.2467 98.2691 64.9801 98.245 61.3379 98.0996C57.5738 97.9494 53.0689 97.6496 48.6787 97.3047C39.996 96.6225 31.442 95.7385 30.0098 95.4521C27.1394 94.8781 23.2672 93.2151 20.4385 90.9521C18.2314 89.1865 17.8769 86.3537 17.8135 84.1338C17.7793 82.9369 17.8306 81.6455 17.8848 80.3848C17.9402 79.0951 18 77.8099 18 76.5C17.9999 74.8012 17.3224 72.3801 16.3047 69.8438C15.3147 67.3767 14.1218 65.0886 13.3447 63.7676L13 63.1807V62.5C13 62.1161 12.9654 61.8624 12.9316 61.7021C12.8671 61.7114 12.7882 61.725 12.6934 61.7471ZM95.9385 12.4521C93.8408 10.774 90.4351 10.5054 86.377 11.3369C82.4397 12.1437 78.5608 13.8564 76.2324 15.1758L75.875 15.3779L75.4717 15.4551C71.8676 16.1484 69.7977 19.3443 68.9404 24.417C68.1011 29.3839 68.6527 35.1763 69.4473 38.9902L69.8096 40.7295L68.2861 41.6445C67.8327 41.9168 66.8574 42.8907 66.8115 45.0654C66.765 47.2773 67.6983 50.8685 71.5088 56.0127C79.0787 66.2318 85.5546 65.388 86.9355 64.7383L88.4609 64.0205L89.6982 65.166L102.836 77.3301C103.978 76.4181 105.182 75.4954 106.401 74.6055C108.765 72.8806 111.267 71.2204 113.599 69.9473C115.845 68.7204 118.236 67.6802 120.292 67.5088C121.109 67.4407 122.088 67.3922 123.178 67.3691C122.683 67.0126 122.194 66.6538 121.714 66.29C116.065 62.0062 111.044 56.9884 108.119 53.6465L107.5 52.9395V52C107.5 48.835 108.016 39.7911 110.036 28.0752C110.862 23.2859 109.031 19.9022 106.277 17.457C103.421 14.9213 99.6159 13.4734 97.0098 12.9521L96.4131 12.832L95.9385 12.4521Z" fill="white"/>
</svg>
