<svg width="512" height="512" viewBox="0 0 512 512" fill="none" xmlns="http://www.w3.org/2000/svg">
<rect width="512" height="512" fill="#1E1E1E"/>
<rect width="512" height="512" fill="black"/>
<path d="M146.5 84.5C147.881 84.5 149 85.6193 149 87V144.999C150.581 143.697 153.143 141.941 155.557 141.378C156.795 141.089 158.57 140.986 160.056 142.148C161.358 143.167 161.865 144.708 161.975 146.289C162.84 147.822 163.977 150.068 164.945 152.481C166.011 155.136 167 158.299 167 161C167 162.44 166.935 163.843 166.881 165.1C166.826 166.385 166.783 167.501 166.812 168.491C166.873 170.645 167.269 171.313 167.562 171.548C169.733 173.285 172.861 174.623 174.99 175.049C176.059 175.263 184.255 176.128 193.071 176.82C197.431 177.163 201.864 177.457 205.537 177.604C209.332 177.755 212.003 177.732 213.053 177.541C215.649 177.069 221.781 175.481 227.662 173.562C230.593 172.605 233.398 171.587 235.63 170.609C236.747 170.12 237.68 169.657 238.396 169.237C239.158 168.791 239.501 168.49 239.602 168.373C240.308 167.549 241.495 166.391 242.978 165.072L231.382 154.335C226.713 155.421 218.936 153.538 211.491 143.488C207.302 137.833 205.735 133.173 205.813 129.46C205.873 126.635 206.895 124.448 208.271 123.016C207.557 118.88 207.143 113.216 208.01 108.084C208.949 102.523 211.62 96.6004 218.115 95.1318C220.809 93.65 225.003 91.8339 229.373 90.9385C233.627 90.0669 238.707 89.9387 242.557 92.6709C245.75 93.3998 250.123 95.1332 253.598 98.2188C257.385 101.582 260.138 106.615 258.964 113.425C257.167 123.846 256.603 132.022 256.514 135.564C259.323 138.679 263.79 143.055 268.735 146.806C271.903 149.208 275.115 151.233 278.113 152.56C280.569 152.951 282.984 153.541 285 154.421C287.126 155.349 289.354 156.843 290.234 159.271C291.778 161.107 293.917 163.874 295.732 166.718C296.708 168.246 297.621 169.845 298.299 171.365C298.951 172.829 299.5 174.467 299.5 176C299.5 176.337 299.596 177.081 299.857 178.295C300.107 179.454 300.473 180.887 300.931 182.521C301.845 185.787 303.097 189.761 304.435 193.772C307.123 201.837 310.087 209.849 311.276 212.466C313.756 217.922 317.619 226.105 324.824 233.79C332.25 241.71 339.114 248.055 344.321 261.072C346.841 267.371 349.312 273.799 351.604 279.065C352.748 281.693 353.822 283.97 354.806 285.753C355.831 287.612 356.62 288.668 357.127 289.103C358.149 289.979 358.973 291.174 359.633 292.361C360.308 293.577 360.895 294.939 361.394 296.279C362.389 298.957 363.097 301.738 363.451 303.51L363.486 303.685L363.496 303.861C363.64 306.447 365.141 313.772 370.026 320.536C374.871 327.243 382.731 331.808 385.984 333.202L386.577 333.456L386.974 333.966C388.786 336.296 391.621 340.309 394.314 344.866C396.991 349.395 399.624 354.621 400.912 359.343C402.009 363.363 404.999 369.013 408.463 374.609C411.697 379.836 415.207 384.796 417.587 387.951C419.269 388.686 421.51 389.937 423.607 391.652C425.953 393.571 428.343 396.257 429.362 399.676L436.816 418.062L436.821 418.072C437.418 419.566 437.166 421.214 436.283 422.674C435.425 424.092 433.958 425.39 431.916 426.558C427.889 428.861 420.995 431.013 409.717 432.429C404.338 434.963 391.515 438.133 378.942 432.266L378.153 431.897L377.764 431.118C376.883 429.357 376.471 426.62 377.73 423.805C379.008 420.95 381.82 418.405 386.646 416.65C390.031 415.419 392.41 412.167 393.956 407.994C395.321 404.31 395.878 400.304 395.98 397.458L378.165 378.198L378.126 378.156L378.089 378.112C373.602 372.795 363.421 360.435 358.939 353.917C354.887 348.022 348.227 344.004 345.484 342.785L345.212 342.664L344.976 342.481C342.722 340.748 339.202 337.741 335.874 334.284C333.032 331.333 330.16 327.879 328.411 324.5H316.563L315.84 323.259L278.84 259.759L278.771 259.642L278.717 259.519C275.982 253.387 271.609 244.121 267.385 236.259C265.269 232.321 263.22 228.79 261.453 226.194C260.567 224.892 259.792 223.885 259.15 223.194C258.413 222.4 258.157 222.362 258.342 222.412C257.317 222.132 256.381 221.53 255.594 220.904C254.775 220.254 253.943 219.437 253.123 218.536C251.482 216.733 249.735 214.418 248.044 211.973C245.182 207.834 242.369 203.156 240.342 199.562C235.375 201.236 228.005 203.131 219.807 204.144C210.42 205.303 199.732 205.335 190.258 202.388C171.868 196.666 157.392 186.399 152.331 181.861L152.219 181.761L152.118 181.646L149 178.082V440.5C149 441.881 147.881 443 146.5 443C145.119 443 144 441.881 144 440.5V87C144 85.6193 145.119 84.5 146.5 84.5ZM400.949 398.257C400.777 401.477 400.129 405.724 398.645 409.731C396.89 414.467 393.768 419.381 388.354 421.35C384.38 422.795 382.86 424.585 382.295 425.847C381.902 426.725 381.883 427.54 382 428.153C392.806 432.744 403.786 429.813 407.882 427.765L408.268 427.571L408.695 427.519C419.972 426.134 426.21 424.061 429.434 422.218C431.042 421.298 431.738 420.527 432.005 420.086C432.085 419.954 432.117 419.864 432.132 419.813L424.684 401.439L424.633 401.315L424.597 401.188C423.992 399.072 422.415 397.136 420.442 395.522C418.87 394.236 417.191 393.278 415.931 392.692L400.949 398.257ZM333.28 322.985C334.714 325.469 336.962 328.205 339.476 330.816C342.512 333.97 345.729 336.733 347.818 338.357C351.221 339.94 358.456 344.386 363.061 351.084C367.372 357.355 377.363 369.496 381.888 374.859L399.198 393.574L412.005 388.817C409.716 385.67 406.877 381.547 404.212 377.241C400.734 371.622 397.391 365.438 396.088 360.658C394.976 356.58 392.609 351.806 390.011 347.41C387.611 343.35 385.094 339.75 383.396 337.52C379.373 335.662 371.242 330.758 365.974 323.464C361.996 317.956 359.968 312.116 359.076 308.007L333.28 322.985ZM284.452 259.46L319.437 319.5H329.327L358.155 302.761C357.805 301.353 357.315 299.656 356.707 298.021C356.264 296.829 355.776 295.715 355.262 294.789C354.732 293.835 354.25 293.222 353.873 292.898C352.63 291.833 351.481 290.076 350.429 288.169C349.334 286.186 348.189 283.745 347.021 281.061C344.688 275.702 342.159 269.129 339.679 262.929C335.17 251.656 329.475 245.979 322.509 238.619L284.452 259.46ZM156.693 146.247C155.664 146.487 154.255 147.297 153 148.221V175.061L155.772 178.229C160.478 182.411 174.262 192.175 191.742 197.613C200.268 200.266 210.163 200.297 219.193 199.182C228.107 198.08 235.968 195.887 240.479 194.211C243.54 192.566 248.47 190.344 253.648 188.859C258.787 187.386 264.76 186.458 269.364 188.154L267.636 192.846C264.64 191.742 260.029 192.231 255.026 193.666C251.304 194.734 247.689 196.228 244.948 197.548C246.896 200.977 249.515 205.308 252.156 209.128C253.79 211.491 255.394 213.602 256.821 215.171C257.535 215.956 258.168 216.563 258.704 216.989C259.129 217.327 259.411 217.484 259.557 217.55L259.658 217.589L259.896 217.662C261.078 218.065 262.077 218.997 262.815 219.792C263.699 220.744 264.635 221.982 265.587 223.381C267.498 226.189 269.644 229.897 271.79 233.892C275.552 240.893 279.409 248.951 282.168 255.01L319.041 234.817C312.606 227.241 309.003 219.55 306.724 214.535C305.413 211.652 302.377 203.413 299.69 195.354C298.34 191.303 297.061 187.245 296.116 183.87C295.644 182.185 295.249 180.644 294.97 179.349C294.702 178.108 294.5 176.913 294.5 176C294.5 175.533 294.298 174.671 293.732 173.401C293.192 172.188 292.417 170.818 291.518 169.408C289.719 166.591 287.544 163.809 286.102 162.127L285.718 161.68L285.574 161.106C285.46 160.649 284.947 159.927 283.361 159.169C281.199 158.972 278.965 158.336 276.735 157.407C275.719 157.26 274.668 157.144 273.608 157.058C270.098 156.771 266.742 156.822 264.708 156.991C263.764 157.07 262.154 157.656 259.995 158.835C257.92 159.968 255.61 161.495 253.349 163.145C248.774 166.483 244.709 170.098 243.398 171.627C242.749 172.385 241.826 173.023 240.926 173.551C239.98 174.105 238.854 174.655 237.636 175.188C235.195 176.258 232.22 177.333 229.213 178.314C223.219 180.27 216.851 181.932 213.947 182.46C212.247 182.769 208.98 182.745 205.338 182.6C201.574 182.449 197.069 182.15 192.679 181.805C183.996 181.122 175.442 180.239 174.01 179.952C171.139 179.378 167.267 177.715 164.438 175.452C162.231 173.686 161.877 170.854 161.813 168.634C161.779 167.437 161.831 166.146 161.885 164.885C161.94 163.595 162 162.31 162 161C162 159.301 161.322 156.88 160.305 154.344C159.315 151.877 158.122 149.589 157.345 148.268L157 147.681V147C157 146.616 156.965 146.362 156.932 146.202C156.867 146.211 156.788 146.225 156.693 146.247ZM239.938 96.9521C237.841 95.274 234.435 95.0054 230.377 95.8369C226.44 96.6437 222.561 98.3564 220.232 99.6758L219.875 99.8779L219.472 99.9551C215.868 100.648 213.798 103.844 212.94 108.917C212.101 113.884 212.653 119.676 213.447 123.49L213.81 125.229L212.286 126.145C211.833 126.417 210.857 127.391 210.812 129.565C210.765 131.777 211.698 135.368 215.509 140.513C223.079 150.732 229.555 149.888 230.936 149.238L232.461 148.521L233.698 149.666L246.836 161.83C247.978 160.918 249.182 159.995 250.401 159.105C252.765 157.381 255.267 155.72 257.599 154.447C259.845 153.22 262.236 152.18 264.292 152.009C265.109 151.941 266.088 151.892 267.178 151.869C266.683 151.513 266.194 151.154 265.714 150.79C260.065 146.506 255.044 141.488 252.119 138.146L251.5 137.439V136.5C251.5 133.335 252.016 124.291 254.036 112.575C254.862 107.786 253.031 104.402 250.277 101.957C247.421 99.4213 243.616 97.9734 241.01 97.4521L240.413 97.332L239.938 96.9521Z" fill="white"/>
</svg>
